<svg width="20" height="81" viewBox="0 0 20 81" fill="none" xmlns="http://www.w3.org/2000/svg">
<path d="M4 55.332L4 57.404L12.638 57.404L12.638 60.344L14.374 60.344L14.374 52.42L12.638 52.42L12.638 55.332L4 55.332ZM3.804 65.7025C3.804 68.4465 5.862 70.3365 9.222 70.3365C12.582 70.3365 14.556 68.4465 14.556 65.7025C14.556 62.9585 12.596 61.0685 9.222 61.0685C5.862 61.0685 3.804 62.9585 3.804 65.7025ZM5.596 65.7025C5.596 64.1625 7.01 63.1825 9.222 63.1825C11.448 63.1825 12.778 64.1625 12.778 65.7025C12.778 67.2425 11.448 68.2225 9.222 68.2225C7.01 68.2225 5.596 67.2425 5.596 65.7025ZM4 72.3599L4 74.4319L7.682 74.4319L7.682 75.8179C7.682 78.0439 8.746 79.8219 11.112 79.8219C13.562 79.8219 14.374 78.0579 14.374 75.7619L14.374 72.3599L4 72.3599ZM9.32 74.4319L12.722 74.4319L12.722 75.6079C12.722 77.0359 12.316 77.7919 11.112 77.7919C9.922 77.7919 9.32 77.1059 9.32 75.6779L9.32 74.4319Z" fill="#F5F5F5"/>
<path fill-rule="evenodd" clip-rule="evenodd" d="M9.46875 1.46967L2.46875 8.46967L3.52941 9.53033L9.24914 3.8106L9.24914 42L10.7491 42L10.7491 3.81072L16.4687 9.53033L17.5294 8.46967L10.5294 1.46967L9.99908 0.939338L9.46875 1.46967Z" fill="#F5F5F5"/>
</svg>
