<svg width="24" height="24" viewBox="0 0 24 24" fill="none" xmlns="http://www.w3.org/2000/svg">
<mask id="path-1-inside-1" fill="white">
<path fill-rule="evenodd" clip-rule="evenodd" d="M9.5 11.8345L0.121277 21.2132L2.2426 23.3345L11.6213 13.9558L21.2132 23.5477L23.3345 21.4264L13.7426 11.8345L23.4558 2.12132L21.3345 0L11.6213 9.71316L2.12132 0.213165L0 2.33448L9.5 11.8345Z"/>
</mask>
<path fill-rule="evenodd" clip-rule="evenodd" d="M9.5 11.8345L0.121277 21.2132L2.2426 23.3345L11.6213 13.9558L21.2132 23.5477L23.3345 21.4264L13.7426 11.8345L23.4558 2.12132L21.3345 0L11.6213 9.71316L2.12132 0.213165L0 2.33448L9.5 11.8345Z" fill="#F5F5F5"/>
<path d="M0.121277 21.2132L-2.70715 18.3847L-5.53559 21.2132L-2.70715 24.0416L0.121277 21.2132ZM9.5 11.8345L12.3284 14.6629L15.1569 11.8345L12.3284 9.00605L9.5 11.8345ZM2.2426 23.3345L-0.585822 26.1629L2.2426 28.9913L5.07102 26.1629L2.2426 23.3345ZM11.6213 13.9558L14.4497 11.1274L11.6213 8.29895L8.7929 11.1274L11.6213 13.9558ZM21.2132 23.5477L18.3848 26.3761L21.2132 29.2045L24.0416 26.3761L21.2132 23.5477ZM23.3345 21.4264L26.163 24.2548L28.9914 21.4264L26.163 18.5979L23.3345 21.4264ZM13.7426 11.8345L10.9142 9.00605L8.08578 11.8345L10.9142 14.6629L13.7426 11.8345ZM23.4558 2.12132L26.2843 4.94975L29.1127 2.12132L26.2843 -0.707114L23.4558 2.12132ZM21.3345 0L24.1629 -2.82843L21.3345 -5.65685L18.5061 -2.82843L21.3345 0ZM11.6213 9.71316L8.7929 12.5416L11.6213 15.37L14.4497 12.5416L11.6213 9.71316ZM2.12132 0.213165L4.94975 -2.61526L2.12132 -5.44369L-0.707105 -2.61526L2.12132 0.213165ZM0 2.33448L-2.82843 -0.493944L-5.65686 2.33448L-2.82843 5.16291L0 2.33448ZM2.9497 24.0416L12.3284 14.6629L6.67158 9.00604L-2.70715 18.3847L2.9497 24.0416ZM5.07102 20.5061L2.9497 18.3847L-2.70715 24.0416L-0.585822 26.1629L5.07102 20.5061ZM8.7929 11.1274L-0.585822 20.5061L5.07102 26.1629L14.4497 16.7842L8.7929 11.1274ZM24.0416 20.7192L14.4497 11.1274L8.7929 16.7842L18.3848 26.3761L24.0416 20.7192ZM20.5061 18.5979L18.3848 20.7192L24.0416 26.3761L26.163 24.2548L20.5061 18.5979ZM10.9142 14.6629L20.5061 24.2548L26.163 18.5979L16.5711 9.00605L10.9142 14.6629ZM20.6274 -0.707115L10.9142 9.00605L16.5711 14.6629L26.2843 4.94975L20.6274 -0.707115ZM18.5061 2.82843L20.6274 4.94975L26.2843 -0.707114L24.1629 -2.82843L18.5061 2.82843ZM14.4497 12.5416L24.1629 2.82843L18.5061 -2.82843L8.7929 6.88473L14.4497 12.5416ZM-0.707104 3.04159L8.7929 12.5416L14.4497 6.88473L4.94975 -2.61526L-0.707104 3.04159ZM2.82843 5.16291L4.94975 3.04159L-0.707105 -2.61526L-2.82843 -0.493944L2.82843 5.16291ZM12.3284 9.00605L2.82843 -0.493944L-2.82843 5.16291L6.67158 14.6629L12.3284 9.00605Z" fill="#F5F5F5" mask="url(#path-1-inside-1)"/>
</svg>
