<svg width="260" height="94" viewBox="0 0 260 94" fill="none" xmlns="http://www.w3.org/2000/svg">
<path d="M28.42 16.8801C30.9316 15.6369 32.6564 12.6521 32.6564 9.46572C32.6564 7.26772 31.8164 5.23772 30.226 3.59972C28.7952 2.12412 26.1352 0.365723 21.5964 0.365723H0V37.2137H22.0304C27.2972 37.2137 29.6016 35.6877 31.3096 34.0385C33.4992 31.8825 34.6108 29.2309 34.6108 26.1537C34.6108 21.5841 32.1944 17.9889 28.42 16.8801ZM24.5924 14.1837C23.73 15.0713 22.5708 15.4857 20.944 15.4857H6.3644V6.24572H20.944C22.6828 6.24572 23.9092 6.67692 24.808 7.60372C25.578 8.39612 26.0176 9.50492 26.0176 10.6417C26.0204 11.9381 25.4856 13.2625 24.5924 14.1837ZM26.5468 29.6957C25.5388 30.7373 23.9708 31.3337 22.246 31.3337H6.3644V20.8057H22.2488C23.8896 20.8057 25.4772 21.5029 26.6 22.7209C27.4988 23.7065 27.9748 24.8741 27.9748 26.0977C27.9748 27.4305 27.44 28.7745 26.5468 29.6957Z" fill="#010202"/>
<path d="M69.0565 37.1409L69.0957 37.2137H76.4261L67.9141 22.2505C72.7777 20.3269 75.6757 16.3957 75.6757 11.7057C75.6757 8.93092 74.6593 6.29332 72.8141 4.27452C70.4313 1.64532 67.0405 0.365723 62.4457 0.365723H42.7505V37.2137H49.1149V23.1577H61.4937L69.0565 37.1409ZM49.1121 6.24572H62.4429C64.2853 6.24572 66.2201 6.39412 67.8805 8.16092C68.8157 9.18292 69.3113 10.4065 69.3113 11.7057C69.3113 14.7269 66.6653 17.2777 63.5293 17.2777H49.1121V6.24572Z" fill="#010202"/>
<path d="M85.4057 37.2137L89.6421 27.3577H106.352L110.645 37.2137H117.634L101.047 0.365723H95.3261L78.7417 37.2137H85.4057ZM98.0953 8.14972L104.059 22.0377H91.9381L97.9553 8.14972H98.0953Z" fill="#010202"/>
<path d="M148.999 25.5433L128.713 0.418923L128.671 0.365723H123.088V37.2137H129.452V12.0333L149.736 37.1605L149.778 37.2137H155.361V0.365723H148.999V25.5433Z" fill="#010202"/>
<path d="M181.191 0.365723H164.049V37.2137H181.191C187.723 37.2137 190.912 35.4861 193.945 32.6917C197.333 29.3121 199.201 24.3645 199.201 18.7617C199.201 13.4193 197.47 8.63412 194.326 5.27972C190.815 1.78812 187.009 0.365723 181.191 0.365723ZM170.411 6.24572H180.917C185.17 6.24572 187.105 7.31532 189.179 9.28092C191.361 11.5853 192.564 14.9509 192.564 18.7617C192.564 22.6033 191.251 26.1621 188.975 28.5113C186.906 30.2613 185.411 31.3337 180.917 31.3337H170.411V6.24572Z" fill="#010202"/>
<path d="M259.112 16.0459H205.923V21.4779H259.112V16.0459Z" fill="#010202"/>
<path d="M0 93.2137H6.3644V76.9177H19.9976V71.0377H6.3644V62.2457H28.798V56.3657H0V93.2137Z" fill="#010202"/>
<path d="M41.7594 56.3657H35.395V93.2137H41.7594V56.3657Z" fill="#010202"/>
<path d="M57.9293 56.3657H51.5649V93.2137H79.7133V87.3337H57.9293V56.3657Z" fill="#010202"/>
<path d="M103.852 77.8781L91.5486 56.3657H85.0806V93.2137H91.1734V68.3497H91.2238L103.012 88.8457H104.151L115.939 68.3497H115.99V93.2137H122.351V56.3657H116.155L103.852 77.8781Z" fill="#010202"/>
</svg>
