<svg width="375" height="280" viewBox="0 0 375 280" fill="none" xmlns="http://www.w3.org/2000/svg">
<path d="M53.78 1.80498L42.4056 40.6226H42.2369L30.1597 1.80498H23.6291L11.5519 40.6226H11.3832L0.0489655 1.95054L0.00478458 1.80498H-10L6.36672 54.8759L6.4109 55.0174H15.4317L26.5731 19.6772H26.7458L37.8872 55.0174H46.912L63.3189 1.80498H53.78Z" fill="#010202"/>
<path d="M116.58 48.3902C122.034 43.0689 125.039 35.9321 125.039 28.2899C125.039 20.7528 122.034 13.6929 116.58 8.40396C111.118 3.10293 103.812 0.187561 96.0082 0.187561C88.2165 0.187561 80.9508 3.10697 75.5528 8.40396C70.1749 13.6767 67.2148 20.7407 67.2148 28.2899C67.2148 44.1849 79.8624 56.6349 96.0123 56.6349C103.824 56.6349 111.13 53.7074 116.58 48.3902ZM82.3606 14.4288C85.9633 10.7209 90.811 8.67892 96.0082 8.67892C101.25 8.67892 106.15 10.7209 109.804 14.4328C113.439 18.1245 115.443 23.0455 115.443 28.2899C115.443 39.2357 106.724 48.1435 96.0082 48.1435C90.8191 48.1435 85.9713 46.0692 82.3606 42.3006C78.778 38.5644 76.8059 33.5869 76.8059 28.2899C76.8059 23.0374 78.778 18.1165 82.3606 14.4288Z" fill="#010202"/>
<path d="M182.541 18.1812C182.541 14.174 181.083 10.3651 178.436 7.4497C175.018 3.65286 170.154 1.80498 163.559 1.80498H135.308V55.0174H144.437V34.7191H162.194L173.046 54.9123L173.102 55.0174H183.617L171.407 33.409C178.384 30.6311 182.541 24.954 182.541 18.1812ZM144.437 10.2963H163.559C166.202 10.2963 168.977 10.5106 171.359 13.0621C172.701 14.538 173.411 16.305 173.411 18.1812C173.411 22.5441 169.616 26.2277 165.118 26.2277H144.437V10.2963Z" fill="#010202"/>
<path d="M229.396 1.80498L203.109 27.647V1.80498H193.98V55.0174H203.109V38.3218L213.17 28.5932L233.373 54.9366L233.433 55.0174H245.241L219.773 22.2449L240.807 1.80498H229.396Z" fill="#010202"/>
<path d="M114.679 108.846C120.852 108.846 125.511 107.212 128.925 103.852C131.977 100.771 133.66 96.6709 133.66 92.308C133.66 88.313 132.242 84.6051 129.556 81.5806C126.101 77.7271 121.374 75.9318 114.679 75.9318H86.4277V129.144H95.5569V108.846H114.679ZM95.5569 84.4231H114.679C117.434 84.4231 120.282 84.7588 122.479 87.1889C123.84 88.685 124.531 90.4358 124.531 92.3888C124.531 94.4187 123.7 96.4 122.254 97.8233C119.968 100.047 117.261 100.355 114.679 100.355H95.5569V84.4231Z" fill="#010202"/>
<path d="M142.528 75.9318V129.144H182.901V120.653H151.658V75.9318H142.528Z" fill="#010202"/>
<path d="M203.212 114.911H227.182L233.339 129.144H243.364L219.571 75.9318H211.365L187.576 129.144H197.135L203.212 114.911ZM215.337 87.1727L223.892 107.229H206.505L215.137 87.1727H215.337Z" fill="#010202"/>
<path d="M257.738 129.144H266.867V104.665L287.945 75.9318H277.157L262.69 96.1655L248.284 76.0167L248.223 75.9318H236.66L257.738 104.665V129.144Z" fill="#010202"/>
<path d="M213.087 166.435C213.087 162.428 211.629 158.619 208.983 155.703C205.565 151.902 200.701 150.059 194.106 150.059H165.859V203.271H174.988V182.973H192.744L203.597 203.166L203.653 203.271H214.168L201.958 181.663C208.934 178.885 213.087 173.208 213.087 166.435ZM174.988 158.55H194.11C196.749 158.55 199.528 158.764 201.91 161.316C203.251 162.791 203.962 164.563 203.962 166.435C203.962 170.798 200.167 174.481 195.668 174.481H174.988V158.55Z" fill="#010202"/>
<path d="M233.659 179.738H253.215V171.246H233.659V158.55H266.228V150.059H224.53V203.271H268.099V194.78H233.659V179.738Z" fill="#010202"/>
<path d="M300.388 204.888C314.778 204.888 323.028 198.358 323.028 186.976C323.028 172.116 308.854 171.109 299.476 170.446L298.255 170.357C291.082 169.843 284.306 169.362 284.306 164.089C284.306 157.41 292.174 156.69 295.56 156.69C304.352 156.69 310.794 159.836 313.887 162.779L314.039 162.925L319.606 156.298L319.445 156.168C315.091 152.606 306.304 148.441 295.869 148.441C290.463 148.441 285.543 149.67 282.009 151.898C277.474 154.761 275.173 159.136 275.173 164.898C275.173 177.914 288.021 178.84 299.355 179.657C308.786 180.429 313.899 182.018 313.899 188.189C313.899 193.482 308.906 196.64 300.54 196.64C289.387 196.64 282.338 191.225 278.004 187.154L277.852 187.008L272.293 193.623L272.434 193.757C280.418 201.245 289.563 204.888 300.388 204.888Z" fill="#010202"/>
<path d="M355.52 203.271V158.55H375.465V150.059H326.365V158.55H346.391V203.271H355.52Z" fill="#010202"/>
<path d="M58.2512 224.185H30V277.398H39.1292V257.099H58.2512C64.4243 257.099 69.0833 255.466 72.4972 252.106C75.5497 249.025 77.2325 244.924 77.2325 240.562C77.2325 236.567 75.8148 232.859 73.1278 229.834C69.6737 225.981 64.9465 224.185 58.2512 224.185ZM39.1292 232.677H58.2512C61.0064 232.677 63.854 233.012 66.051 235.442C67.4125 236.939 68.1033 238.689 68.1033 240.642C68.1033 242.672 67.2719 244.654 65.826 246.077C63.5407 248.301 60.8337 248.608 58.2512 248.608H39.1292V232.677Z" fill="#010202"/>
<path d="M95.2298 253.865H114.786V245.373H95.2298V232.677H127.799V224.185H86.1006V277.398H129.67V268.906H95.2298V253.865Z" fill="#010202"/>
<path d="M162.584 222.568C154.793 222.568 147.527 225.483 142.129 230.784C136.751 236.057 133.791 243.121 133.791 250.67C133.791 266.565 146.439 279.015 162.588 279.015C170.404 279.015 177.714 276.088 183.16 270.77C188.614 265.449 191.619 258.312 191.619 250.67C191.619 243.133 188.614 236.073 183.16 230.784C177.694 225.487 170.388 222.568 162.584 222.568ZM162.584 270.524C157.395 270.524 152.547 268.45 148.937 264.681C145.354 260.945 143.382 255.967 143.382 250.67C143.382 245.418 145.354 240.497 148.937 236.809C152.539 233.101 157.387 231.059 162.584 231.059C167.826 231.059 172.726 233.101 176.381 236.813C180.015 240.505 182.02 245.426 182.02 250.67C182.016 261.616 173.3 270.524 162.584 270.524Z" fill="#010202"/>
<path d="M228.529 224.185H200.278V277.398H209.407V257.099H228.529C234.702 257.099 239.361 255.466 242.775 252.106C245.828 249.025 247.51 244.924 247.51 240.562C247.51 236.567 246.093 232.859 243.406 229.834C239.952 225.981 235.224 224.185 228.529 224.185ZM209.407 232.677H228.529C231.284 232.677 234.132 233.012 236.329 235.442C237.69 236.939 238.381 238.689 238.381 240.642C238.381 242.672 237.55 244.654 236.104 246.077C233.819 248.301 231.112 248.608 228.529 248.608H209.407V232.677Z" fill="#010202"/>
<path d="M265.509 224.185H256.379V277.398H296.752V268.906H265.509V224.185Z" fill="#010202"/>
<path d="M313.584 253.865H333.14V245.373H313.584V232.677H346.153V224.185H304.455V277.398H348.02V268.906H313.584V253.865Z" fill="#010202"/>
</svg>
