<svg width="184" height="94" viewBox="0 0 184 94" fill="none" xmlns="http://www.w3.org/2000/svg">
<path d="M6.3644 0H0V36.848H28.1456V30.968H6.3644V0Z" fill="#010202"/>
<path d="M41.0001 0H34.6357V36.848H41.0001V0Z" fill="#010202"/>
<path d="M56.6105 20.552H70.2437V14.672H56.6105V5.88H79.0441V0H50.2461V36.848H56.6105V20.552Z" fill="#010202"/>
<path d="M114.895 30.968H90.8854V20.552H104.519V14.672H90.8854V5.88H113.591V0H84.521V36.848H114.895V30.968Z" fill="#010202"/>
<path d="M140.591 0H134.227V36.848H140.591V0Z" fill="#010202"/>
<path d="M176.868 0V25.1776L156.585 0.0532L156.543 0H150.957V36.848H157.321V11.6676L177.607 36.7948L177.649 36.848H183.232V0H176.868Z" fill="#010202"/>
<path d="M23.0188 79.716C23.0188 84.8792 19.7008 88.088 14.3584 88.088C10.136 88.088 7.1932 85.9908 5.362 81.6788L5.3004 81.536L0 84.4144L0.056 84.5348C1.1396 86.8672 4.4324 93.968 14.4144 93.968C23.5088 93.968 29.3832 88.3736 29.3832 79.716V56H23.0188V79.716Z" fill="#010202"/>
<path d="M44.2877 76.552H57.9209V70.672H44.2877V61.88H66.9929V56H37.9233V92.848H68.2977V86.968H44.2877V76.552Z" fill="#010202"/>
<path d="M94.3038 79.716C94.3038 84.8792 90.9858 88.088 85.6434 88.088C81.421 88.088 78.4782 85.9908 76.647 81.6788L76.5854 81.536L71.2822 84.4172L71.3382 84.5376C72.4218 86.87 75.7146 93.9708 85.6966 93.9708C94.791 93.9708 100.665 88.3764 100.665 79.7188V56H94.3038V79.716Z" fill="#010202"/>
<path d="M133.868 79.716C133.868 84.8008 130.127 88.088 124.34 88.088C118.583 88.088 114.864 84.8008 114.864 79.716V56H108.5V79.716C108.5 88.3736 114.716 93.968 124.34 93.968C133.994 93.968 140.232 88.3736 140.232 79.716V56H133.868V79.716Z" fill="#010202"/>
</svg>
