<svg width="24" height="19" viewBox="0 0 24 19" fill="none" xmlns="http://www.w3.org/2000/svg">
<path d="M10.3566 2.25862C8.23566 3.40479 6.62326 4.56253 5.38295 5.99814C4.15504 7.43374 4.51473 9.56399 6.11473 10.6407L6.53643 10.9301C8.55814 12.3773 9.09147 13.6508 9.09147 15.1559C9.09147 17.4367 7.13178 18.988 4.98605 18.988H4.93643C3.01395 18.9765 1.24031 17.8882 0.595349 16.1979C0.210853 15.1443 0 14.0329 0 12.933C0 7.75791 3.9938 3.15008 9.5876 0.869324L10.3566 2.25862ZM24 2.25862C21.8667 3.40479 20.2543 4.56253 19.0264 5.99814C17.7985 7.43374 18.1581 9.56399 19.7581 10.6407L20.1798 10.9301C22.2016 12.3773 22.7349 13.6508 22.7349 15.1559C22.7349 17.4367 20.7752 18.988 18.6295 18.988H18.5798C16.6574 18.9765 14.8837 17.8882 14.2388 16.1979C13.8543 15.1443 13.6434 14.0329 13.6434 12.933C13.6434 7.75791 17.6372 3.15008 23.231 0.869324L24 2.25862Z" fill="black"/>
</svg>
