<svg width="82" height="83" viewBox="0 0 82 83" fill="none" xmlns="http://www.w3.org/2000/svg">
<circle opacity="0.3" cx="41" cy="41.3657" r="40.4" stroke="black" stroke-width="1.2"/>
<path d="M25.2377 46.3657H27.0137L27.0137 43.2097H28.2017C30.1097 43.2097 31.6337 42.2977 31.6337 40.2697C31.6337 38.1697 30.1217 37.4857 28.1537 37.4857H25.2377L25.2377 46.3657ZM27.0137 41.8057V38.8897H28.0217C29.2457 38.8897 29.8937 39.2377 29.8937 40.2697C29.8937 41.2897 29.3057 41.8057 28.0817 41.8057H27.0137ZM35.0416 46.3657H40.4176V44.8777H36.8176V37.4857H35.0416V46.3657ZM45.3768 42.7057L45.6408 41.7337C45.9048 40.8097 46.1688 39.8017 46.3968 38.8297H46.4448C46.7088 39.7897 46.9488 40.8097 47.2248 41.7337L47.4888 42.7057H45.3768ZM48.4968 46.3657H50.3568L47.5008 37.4857H45.4128L42.5688 46.3657H44.3688L44.9928 44.0857H47.8728L48.4968 46.3657ZM54.4736 46.3657H56.2496V43.1137L58.9256 37.4857H57.0776L56.1896 39.6457C55.9376 40.3057 55.6736 40.9297 55.3976 41.6137H55.3496C55.0736 40.9297 54.8336 40.3057 54.5816 39.6457L53.6936 37.4857H51.8096L54.4736 43.1137V46.3657Z" fill="black"/>
</svg>
