<svg width="24" height="18" viewBox="0 0 24 18" fill="none" xmlns="http://www.w3.org/2000/svg">
<path d="M10.3566 1.3394C8.23566 2.44441 6.62326 3.56057 5.38295 4.94462C4.15504 6.32867 4.51473 8.38242 6.11473 9.42045L6.53643 9.69949C8.55814 11.0947 9.09147 12.3225 9.09147 13.7735C9.09147 15.9724 7.13178 17.468 4.98605 17.468H4.93643C3.01395 17.4569 1.24031 16.4077 0.595349 14.7781C0.210853 13.7623 0 12.6908 0 11.6305C0 6.6412 3.9938 2.19885 9.5876 0L10.3566 1.3394ZM24 1.3394C21.8667 2.44441 20.2543 3.56057 19.0264 4.94462C17.7985 6.32867 18.1581 8.38242 19.7581 9.42045L20.1798 9.69949C22.2016 11.0947 22.7349 12.3225 22.7349 13.7735C22.7349 15.9724 20.7752 17.468 18.6295 17.468H18.5798C16.6574 17.4569 14.8837 16.4077 14.2388 14.7781C13.8543 13.7623 13.6434 12.6908 13.6434 11.6305C13.6434 6.6412 17.6372 2.19885 23.231 0L24 1.3394Z" fill="#F5F5F5"/>
</svg>
