<svg width="160" height="40" viewBox="0 0 160 40" fill="none" xmlns="http://www.w3.org/2000/svg">
<path d="M0.248535 0H16.0694V3.38177H9.99978V17.8071H6.31819V3.38177H0.248535V0Z" fill="black"/>
<path d="M28.557 10.568H21.5918V14.4782H32.4873V17.86H17.96V0H31.9401V3.38177H21.5918V7.18626H28.557V10.568Z" fill="black"/>
<path d="M33.7808 0H49.6017V3.38177H43.5818V17.8071H39.9002V3.38177H33.7808V0Z" fill="black"/>
<path d="M51.4922 17.8071V0H60.7957C63.1837 0 64.7758 0.739762 65.8206 1.95509C66.7161 2.95905 67.2136 4.22721 67.2136 5.6539C67.2136 7.92602 65.8703 9.72259 63.8305 10.6737L67.7609 17.86H63.532L60.1489 11.3078H55.1738V17.86H51.4922V17.8071ZM55.1738 3.32893V7.97886H61.1937C62.4872 7.97886 63.532 6.9749 63.532 5.6539C63.532 5.07266 63.333 4.49141 62.935 4.12153C62.338 3.43461 61.5917 3.38177 60.9449 3.38177H55.1738V3.32893Z" fill="black"/>
<path d="M76.5669 0H79.751L87.5619 17.8071H83.5321L81.9898 14.0555H74.2286L72.7361 17.8071H68.8555L76.5669 0ZM75.4226 10.9908H80.6465L78.1092 4.70277H77.9599L75.4226 10.9908Z" fill="black"/>
<path d="M89.2036 17.8071V0H103.084V3.38177H92.8852V7.18626H99.8504V10.568H92.8852V17.86H89.2036V17.8071Z" fill="black"/>
<path d="M104.925 17.8071V0H108.607V17.8071H104.925Z" fill="black"/>
<path d="M122.039 10.568H115.074V14.4782H125.97V17.86H111.442V0H125.422V3.38177H115.124V7.18626H122.089V10.568H122.039Z" fill="black"/>
<path d="M131.542 0V14.4782H141.393V17.86H127.86V0H131.542Z" fill="black"/>
<path d="M143.283 17.8071V0H151.194C154.278 0 156.268 0.951123 157.761 2.53633C159.204 4.12153 160 6.39366 160 8.87715C160 11.4663 159.154 13.8441 157.562 15.4822C156.119 16.9089 154.278 17.8071 151.144 17.8071H143.283ZM151.044 14.4782C152.985 14.4782 153.781 14.0026 154.626 13.21C155.622 12.1532 156.169 10.7266 156.169 8.92999C156.169 7.2391 155.671 5.81242 154.776 4.80845C153.93 3.91017 153.034 3.38177 151.044 3.38177H146.965V14.4782H151.044Z" fill="black"/>
<path d="M13.6816 21.7173V33.2365C13.6816 37.5693 10.6965 40 6.61692 40C2.38806 40 0.79602 37.358 0 35.5614L1.39303 34.7688C2.0398 36.2483 3.28358 38.3619 6.56716 38.3619C9.70149 38.3619 11.9403 36.5125 11.9403 33.2365V21.7173H13.6816Z" fill="black"/>
<path d="M27.8109 31.3871H19.403V37.8864H31.6418V39.5244H17.7114V21.7173H31.0945V23.3553H19.403V29.8018H27.7612V31.3871H27.8109Z" fill="black"/>
<path d="M47.7612 21.7173V33.2365C47.7612 37.5693 44.7761 40 40.6965 40C36.4677 40 34.8756 37.358 34.0796 35.5614L35.4726 34.7688C36.1194 36.2483 37.3632 38.3619 40.6468 38.3619C43.7811 38.3619 46.0199 36.5125 46.0199 33.2365V21.7173H47.7612Z" fill="black"/>
<path d="M66.4178 21.7173V33.2365C66.4178 37.5693 63.2835 40 59.0546 40C54.8755 40 51.7412 37.5165 51.7412 33.2365V21.7173H53.4825V33.2365C53.4825 36.5654 55.9203 38.3619 59.0546 38.3619C62.2885 38.3619 64.6765 36.5125 64.6765 33.2365V21.7173H66.4178Z" fill="black"/>
</svg>
