<svg width="17" height="77" viewBox="0 0 17 77" fill="none" xmlns="http://www.w3.org/2000/svg">
<path d="M3 53.9273L3 55.7033L10.404 55.7033L10.404 58.2233L11.892 58.2233L11.892 51.4313L10.404 51.4313L10.404 53.9273L3 53.9273ZM2.832 62.8163C2.832 65.1683 4.596 66.7883 7.476 66.7883C10.356 66.7883 12.048 65.1683 12.048 62.8163C12.048 60.4643 10.368 58.8443 7.476 58.8443C4.596 58.8443 2.832 60.4643 2.832 62.8163ZM4.368 62.8163C4.368 61.4963 5.58 60.6563 7.476 60.6563C9.384 60.6563 10.524 61.4963 10.524 62.8163C10.524 64.1363 9.384 64.9763 7.476 64.9763C5.58 64.9763 4.368 64.1363 4.368 62.8163ZM3 68.5227L3 70.2987L6.156 70.2987L6.156 71.4867C6.156 73.3947 7.068 74.9187 9.096 74.9187C11.196 74.9187 11.892 73.4067 11.892 71.4387L11.892 68.5227L3 68.5227ZM7.56 70.2987L10.476 70.2987L10.476 71.3067C10.476 72.5307 10.128 73.1787 9.096 73.1787C8.076 73.1787 7.56 72.5907 7.56 71.3667L7.56 70.2987Z" fill="#F5F5F5"/>
<path fill-rule="evenodd" clip-rule="evenodd" d="M7.46875 0.530216L0.468749 7.53022L1.52941 8.59088L7.24908 2.87121L7.24908 41.0605L8.74908 41.0605L8.74908 2.87121L14.4687 8.59088L15.5294 7.53022L8.52941 0.530216L7.99908 -0.00011484L7.46875 0.530216Z" fill="#F5F5F5"/>
</svg>
