<svg width="1173" height="825" viewBox="0 0 1173 825" fill="none" xmlns="http://www.w3.org/2000/svg">
<path d="M190.141 4.78558L156.232 119.64H155.729L119.724 4.78558H100.255L64.2504 119.64H63.7475L29.958 5.21629L29.8263 4.78558H0L48.7924 161.813L48.9242 162.232H75.8169L109.032 57.6664H109.547L142.761 162.232H169.666L218.578 4.78558H190.141Z" fill="#010202"/>
<path d="M377.36 142.623C393.62 126.878 402.577 105.762 402.577 83.1497C402.577 60.8488 393.62 39.9597 377.36 24.3108C361.076 8.62603 339.296 0 316.031 0C292.803 0 271.142 8.63799 255.05 24.3108C239.017 39.9118 230.193 60.8129 230.193 83.1497C230.193 130.18 267.898 167.017 316.043 167.017C339.332 167.017 361.112 158.355 377.36 142.623ZM275.345 42.1371C286.085 31.1662 300.538 25.1244 316.031 25.1244C331.657 25.1244 346.265 31.1662 357.161 42.1491C367.997 53.0722 373.972 67.6324 373.972 83.1497C373.972 115.536 347.977 141.893 316.031 141.893C300.562 141.893 286.109 135.755 275.345 124.605C264.665 113.55 258.786 98.8225 258.786 83.1497C258.786 67.6085 264.665 53.0483 275.345 42.1371Z" fill="#010202"/>
<path d="M574.003 53.2397C574.003 41.3834 569.656 30.1133 561.766 21.4873C551.576 10.2531 537.076 4.78558 517.415 4.78558H433.193V162.232H460.409V102.172H513.344L545.697 161.92L545.865 162.232H577.212L540.812 98.2961C561.61 90.0768 574.003 73.2794 574.003 53.2397ZM460.409 29.9099H517.415C525.294 29.9099 533.568 30.544 540.668 38.0933C544.667 42.4602 546.787 47.6884 546.787 53.2397C546.787 66.1488 535.472 77.048 522.061 77.048H460.409V29.9099Z" fill="#010202"/>
<path d="M713.687 4.78558L635.319 81.2474V4.78558H608.104V162.232H635.319V112.832L665.313 84.0469L725.541 161.992L725.72 162.232H760.923L684.998 65.2635L747.704 4.78558H713.687Z" fill="#010202"/>
<path d="M356.786 321.5C375.189 321.5 389.078 316.667 399.256 306.725C408.356 297.608 413.373 285.477 413.373 272.567C413.373 260.747 409.146 249.776 401.136 240.827C390.839 229.425 376.746 224.113 356.786 224.113H272.563V381.559H299.779V321.5H356.786ZM299.779 249.238H356.786C364.999 249.238 373.489 250.231 380.038 257.421C384.097 261.848 386.157 267.028 386.157 272.807C386.157 278.813 383.678 284.675 379.368 288.886C372.555 295.466 364.485 296.376 356.786 296.376H299.779V249.238Z" fill="#010202"/>
<path d="M439.811 224.113V381.559H560.169V356.435H467.027V224.113H439.811Z" fill="#010202"/>
<path d="M620.72 339.446H692.178L710.534 381.559H740.42L669.488 224.113H645.026L574.107 381.559H602.604L620.72 339.446ZM656.868 257.373L682.372 316.714H630.538L656.27 257.373H656.868Z" fill="#010202"/>
<path d="M783.274 381.559H810.49V309.129L873.327 224.113H841.166L798.037 283.981L755.088 224.365L754.908 224.113H720.436L783.274 309.129V381.559Z" fill="#010202"/>
<path d="M688.919 491.895C688.919 480.039 684.573 468.769 676.682 460.143C666.493 448.896 651.993 443.441 632.332 443.441H548.122V600.887H575.338V540.828H628.273L660.626 600.576L660.793 600.887H692.14L655.74 536.951C676.539 528.732 688.919 511.935 688.919 491.895ZM575.338 468.565H632.344C640.211 468.565 648.496 469.199 655.597 476.749C659.596 481.115 661.715 486.356 661.715 491.895C661.715 504.804 650.4 515.703 636.99 515.703H575.338V468.565Z" fill="#010202"/>
<path d="M750.248 531.256H808.548V506.132H750.248V468.565H847.342V443.441H723.032V600.887H852.922V575.762H750.248V531.256Z" fill="#010202"/>
<path d="M949.178 605.672C992.079 605.672 1016.67 586.351 1016.67 552.672C1016.67 508.704 974.418 505.725 946.459 503.763L942.82 503.5C921.435 501.981 901.235 500.557 901.235 484.956C901.235 465.191 924.691 463.062 934.785 463.062C960.995 463.062 980.201 472.37 989.421 481.08L989.876 481.51L1006.47 461.901L1005.99 461.518C993.013 450.978 966.815 438.655 935.707 438.655C919.591 438.655 904.923 442.292 894.386 448.884C880.868 457.355 874.007 470.3 874.007 487.349C874.007 525.861 912.311 528.6 946.1 531.017C974.214 533.302 989.457 538.004 989.457 556.261C989.457 571.922 974.574 581.266 949.632 581.266C916.382 581.266 895.368 565.246 882.449 553.198L881.994 552.768L865.422 572.341L865.841 572.736C889.645 594.893 916.909 605.672 949.178 605.672Z" fill="#010202"/>
<path d="M1113.54 600.887V468.565H1173V443.441H1026.62V468.565H1086.32V600.887H1113.54Z" fill="#010202"/>
<path d="M84.2223 662.769H0V820.214H27.216V760.155H84.2223C102.626 760.155 116.515 755.322 126.693 745.38C135.793 736.263 140.81 724.132 140.81 711.223C140.81 699.402 136.583 688.431 128.573 679.482C118.275 668.081 104.182 662.769 84.2223 662.769ZM27.216 687.893H84.2223C92.4362 687.893 100.926 688.886 107.475 696.076C111.534 700.503 113.594 705.683 113.594 711.462C113.594 717.468 111.115 723.33 106.805 727.542C99.9916 734.122 91.9214 735.031 84.2223 735.031H27.216V687.893Z" fill="#010202"/>
<path d="M194.463 750.584H252.763V725.46H194.463V687.893H291.557V662.769H167.247V820.214H297.137V795.09H194.463V750.584Z" fill="#010202"/>
<path d="M395.261 657.983C372.032 657.983 350.372 666.609 334.279 682.294C318.246 697.895 309.422 718.796 309.422 741.133C309.422 788.163 347.127 825 395.273 825C418.573 825 440.365 816.338 456.601 800.605C472.862 784.861 481.818 763.744 481.818 741.133C481.818 718.832 472.862 697.943 456.601 682.294C440.305 666.621 418.525 657.983 395.261 657.983ZM395.261 799.876C379.791 799.876 365.339 793.738 354.574 782.588C343.894 771.533 338.015 756.805 338.015 741.133C338.015 725.591 343.894 711.031 354.574 700.12C365.315 689.149 379.767 683.107 395.261 683.107C410.886 683.107 425.494 689.149 436.39 700.132C447.226 711.055 453.201 725.615 453.201 741.133C453.189 773.519 427.206 799.876 395.261 799.876Z" fill="#010202"/>
<path d="M591.855 662.769H507.633V820.214H534.849V760.155H591.855C610.259 760.155 624.148 755.322 634.326 745.38C643.426 736.263 648.442 724.132 648.442 711.223C648.442 699.402 644.216 688.431 636.205 679.482C625.908 668.081 611.815 662.769 591.855 662.769ZM534.849 687.893H591.855C600.069 687.893 608.558 688.886 615.108 696.076C619.167 700.503 621.226 705.683 621.226 711.462C621.226 717.468 618.748 723.33 614.437 727.542C607.624 734.122 599.554 735.031 591.855 735.031H534.849V687.893Z" fill="#010202"/>
<path d="M702.097 662.769H674.881V820.214H795.239V795.09H702.097V662.769Z" fill="#010202"/>
<path d="M845.421 750.584H903.72V725.46H845.421V687.893H942.515V662.769H818.205V820.214H948.082V795.09H845.421V750.584Z" fill="#010202"/>
</svg>
