<svg width="526" height="271" viewBox="0 0 526 271" fill="none" xmlns="http://www.w3.org/2000/svg">
<path d="M55.82 60.6287C61.92 54.5488 65.28 45.6488 65.28 35.5687C65.28 25.9687 62.17 17.3588 56.5 11.3088C50.17 5.02875 43.33 2.46875 32.86 2.46875H2V68.7688H32.86C44.61 68.7688 50.35 65.6587 55.82 60.6287ZM32.38 13.4688C39.93 13.4688 43.22 15.2788 46.96 18.8088C50.81 22.8787 52.93 28.8287 52.93 35.5687C52.93 42.3687 50.61 48.6587 46.61 52.7887C42.96 55.8787 40.32 57.7687 32.38 57.7687H13.86V13.4688H32.38Z" fill="white"/>
<path d="M89.9999 2.46875H78.1399V68.7688H89.9999V2.46875Z" fill="white"/>
<path d="M136.55 60.0687C122.75 60.0687 114.03 53.4088 108.66 48.3988L108.28 48.0387L101.04 56.6087L101.39 56.9287C111.38 66.2387 122.82 70.7588 136.36 70.7588C154.43 70.7588 164.8 62.5887 164.8 48.3587C164.8 29.7487 146.3 28.4488 135.25 27.6688L133.73 27.5588C124.92 26.9387 116.6 26.3388 116.6 20.0588C116.6 12.0288 126.22 11.1587 130.36 11.1587C141.23 11.1587 149.19 15.0187 153.01 18.6187L153.39 18.9788L160.66 10.3888L160.26 10.0688C154.79 5.64875 143.79 0.46875 130.73 0.46875C123.95 0.46875 117.78 1.99875 113.34 4.77875C107.62 8.36875 104.72 13.8488 104.72 21.0688C104.72 37.3988 121.54 38.5987 135.05 39.5687C146.64 40.5087 152.92 42.4288 152.92 49.8688C152.93 56.2588 146.81 60.0687 136.55 60.0687Z" fill="white"/>
<path d="M208 70.7688C223.88 70.7688 234.61 62.1488 239.59 57.0187L239.93 56.6688L231.94 48.5387L231.58 48.9287C225.35 55.8187 216.82 59.7687 208.19 59.7687C194.93 59.7687 185.31 49.6287 185.31 35.6688C185.31 21.6488 194.73 11.4688 207.7 11.4688C215.42 11.4688 223.96 14.9488 229.47 20.3288L229.83 20.6787L237.91 12.4587L237.55 12.1088C229.96 4.81875 218.73 0.46875 207.52 0.46875C187.77 0.46875 172.88 15.5587 172.88 35.5687C172.88 55.9688 187.65 70.7688 208 70.7688Z" fill="white"/>
<path d="M280.17 70.7688C300.58 70.7688 316.56 55.2588 316.56 35.4688C316.56 16.1688 300.24 0.46875 280.17 0.46875C259.93 0.46875 244.07 15.8487 244.07 35.4688C244.07 55.2687 259.93 70.7688 280.17 70.7688ZM280.17 11.4688C293.37 11.4688 304.11 22.2388 304.11 35.4688C304.11 48.8688 293.37 59.7687 280.17 59.7687C267.13 59.7687 256.52 48.8688 256.52 35.4688C256.52 22.0088 266.91 11.4688 280.17 11.4688Z" fill="white"/>
<path d="M359.36 68.7688L389.2 2.46875H376.26L354.38 53.3787L332.49 2.46875H318.97L348.82 68.7688H359.36Z" fill="white"/>
<path d="M409.97 39.6688H434.32V28.6688H409.97V13.4688H450.52V2.46875H398.11V68.7688H452.85V57.7687H409.97V39.6688Z" fill="white"/>
<path d="M476.32 43.6688H498.03L511.61 68.7688H525.28L510 41.9287C518.62 38.4188 523.75 31.3688 523.75 22.9788C523.75 17.9587 521.91 13.1887 518.58 9.53875C514.28 4.77875 508.16 2.46875 499.88 2.46875H464.46V68.7688H476.32V43.6688ZM476.32 13.4688H499.88C503.11 13.4688 506.51 13.7288 509.4 16.8088C511.05 18.6087 511.89 20.6887 511.89 22.9688C511.89 28.2288 507.28 32.6688 501.82 32.6688H476.32V13.4688Z" fill="white"/>
<path d="M26.49 168.769H38.35V138.339L64.84 102.469H50.79L32.9 127.319L15.17 102.679L15.02 102.469H0L26.49 138.339V168.769Z" fill="white"/>
<path d="M138.07 135.469C138.07 116.169 121.74 100.469 101.68 100.469C81.4401 100.469 65.5801 115.849 65.5801 135.469C65.5801 155.269 81.4401 170.769 101.68 170.769C122.08 170.769 138.07 155.269 138.07 135.469ZM101.68 111.469C114.88 111.469 125.62 122.239 125.62 135.469C125.62 148.869 114.88 159.769 101.68 159.769C88.6401 159.769 78.0301 148.869 78.0301 135.469C78.0301 122.009 88.4201 111.469 101.68 111.469Z" fill="white"/>
<path d="M177.63 170.769C195.02 170.769 206.26 160.679 206.26 145.069V102.469H194.4V145.069C194.4 153.999 187.82 159.769 177.63 159.769C167.5 159.769 160.96 153.999 160.96 145.069V102.469H149.1V145.069C149.1 160.689 160.29 170.769 177.63 170.769Z" fill="white"/>
<path d="M233.87 143.669H255.58L269.16 168.769H282.83L267.56 141.919C276.18 138.409 281.31 131.359 281.31 122.969C281.31 117.949 279.47 113.179 276.14 109.529C271.84 104.779 265.72 102.459 257.43 102.459H222.01V168.759H233.88V143.669H233.87ZM233.87 113.469H257.42C260.65 113.469 264.05 113.729 266.95 116.809C268.6 118.609 269.44 120.689 269.44 122.969C269.44 128.229 264.83 132.669 259.37 132.669H233.87V113.469Z" fill="white"/>
<path d="M49.3 227.169H15.86V202.469H4V268.769H15.86V238.169H49.3V268.769H61.16V202.469H49.3V227.169Z" fill="white"/>
<path d="M100.11 202.469L70.27 268.769H82.72L90.29 251.169H119.8L127.46 268.769H140.49L110.65 202.469H100.11ZM115.49 241.169H94.6L105.09 216.959L115.49 241.169Z" fill="white"/>
<path d="M208.89 222.969C208.89 217.949 207.05 213.179 203.72 209.529C199.42 204.779 193.3 202.459 185.01 202.459H149.6V268.759H161.47V243.659H183.18L196.76 268.759H210.43L195.16 241.909C203.77 238.419 208.89 231.369 208.89 222.969ZM161.46 213.469H185.01C188.24 213.469 191.64 213.729 194.54 216.809C196.19 218.609 197.03 220.689 197.03 222.969C197.03 228.229 192.42 232.669 186.96 232.669H161.46V213.469Z" fill="white"/>
<path d="M256.41 240.629L234.72 202.719L234.58 202.469H222.64V268.769H234.01V224.899L254.76 260.969H257.08L277.83 224.899V268.769H289.69V202.469H278.23L256.41 240.629Z" fill="white"/>
<path d="M337.18 200.469C316.94 200.469 301.08 215.849 301.08 235.469C301.08 255.269 316.94 270.769 337.18 270.769C357.59 270.769 373.57 255.259 373.57 235.469C373.57 216.169 357.24 200.469 337.18 200.469ZM337.18 211.469C350.38 211.469 361.12 222.239 361.12 235.469C361.12 248.869 350.38 259.769 337.18 259.769C324.14 259.769 313.53 248.869 313.53 235.469C313.53 222.009 323.92 211.469 337.18 211.469Z" fill="white"/>
<path d="M431.12 246.979L395.35 202.659L395.2 202.469H384.86V268.769H396.72V224.269L432.5 268.589L432.65 268.769H442.99V202.469H431.12V246.979Z" fill="white"/>
<path d="M484 227.319L466.27 202.679L466.12 202.469H451.1L477.59 238.339V268.769H489.45V238.339L515.94 202.469H501.89L484 227.319Z" fill="white"/>
</svg>
