<svg width="926" height="332" viewBox="0 0 926 332" fill="none" xmlns="http://www.w3.org/2000/svg">
<path d="M101.5 59.3003C110.47 54.8603 116.63 44.2003 116.63 32.8203C116.63 24.9703 113.63 17.7203 107.95 11.8703C102.84 6.60031 93.34 0.320312 77.13 0.320312H0V131.92H78.68C97.49 131.92 105.72 126.47 111.82 120.58C119.64 112.88 123.61 103.41 123.61 92.4203C123.61 76.1003 114.98 63.2603 101.5 59.3003ZM87.83 49.6703C84.75 52.8403 80.61 54.3203 74.8 54.3203H22.73V21.3203H74.8C81.01 21.3203 85.39 22.8603 88.6 26.1703C91.35 29.0003 92.92 32.9603 92.92 37.0203C92.93 41.6503 91.02 46.3803 87.83 49.6703ZM94.81 105.07C91.21 108.79 85.61 110.92 79.45 110.92H22.73V73.3203H79.46C85.32 73.3203 90.99 75.8103 95 80.1603C98.21 83.6803 99.91 87.8503 99.91 92.2203C99.91 96.9803 98 101.78 94.81 105.07Z" fill="#010202"/>
<path d="M246.63 131.66L246.77 131.92H272.95L242.55 78.4803C259.92 71.6103 270.27 57.5703 270.27 40.8203C270.27 30.9103 266.64 21.4903 260.05 14.2803C251.54 4.89031 239.43 0.320312 223.02 0.320312H152.68V131.92H175.41V81.7203H219.62L246.63 131.66ZM175.4 21.3203H223.01C229.59 21.3203 236.5 21.8503 242.43 28.1603C245.77 31.8103 247.54 36.1803 247.54 40.8203C247.54 51.6103 238.09 60.7203 226.89 60.7203H175.4V21.3203Z" fill="#010202"/>
<path d="M305.02 131.92L320.15 96.7203H379.83L395.16 131.92H420.12L360.88 0.320312H340.45L281.22 131.92H305.02ZM350.34 28.1203L371.64 77.7203H328.35L349.84 28.1203H350.34Z" fill="#010202"/>
<path d="M532.14 90.2403L459.69 0.510312L459.54 0.320312H439.6V131.92H462.33V41.9903L534.77 131.73L534.92 131.92H554.86V0.320312H532.14V90.2403Z" fill="#010202"/>
<path d="M647.11 0.320312H585.89V131.92H647.11C670.44 131.92 681.83 125.75 692.66 115.77C704.76 103.7 711.43 86.0303 711.43 66.0203C711.43 46.9403 705.25 29.8503 694.02 17.8703C681.48 5.40031 667.89 0.320312 647.11 0.320312ZM608.61 21.3203H646.13C661.32 21.3203 668.23 25.1403 675.64 32.1603C683.43 40.3903 687.73 52.4103 687.73 66.0203C687.73 79.7403 683.04 92.4503 674.91 100.84C667.52 107.09 662.18 110.92 646.13 110.92H608.61V21.3203Z" fill="#010202"/>
<path d="M925.4 56.3203H735.44V75.7203H925.4V56.3203Z" fill="#010202"/>
<path d="M0 331.92H22.73V273.72H71.42V252.72H22.73V221.32H102.85V200.32H0V331.92Z" fill="#010202"/>
<path d="M149.14 200.32H126.41V331.92H149.14V200.32Z" fill="#010202"/>
<path d="M206.89 200.32H184.16V331.92H284.69V310.92H206.89V200.32Z" fill="#010202"/>
<path d="M370.9 277.15L326.96 200.32H303.86V331.92H325.62V243.12H325.8L367.9 316.32H371.97L414.07 243.12H414.25V331.92H436.97V200.32H414.84L370.9 277.15Z" fill="#010202"/>
</svg>
