<svg xmlns="http://www.w3.org/2000/svg" width="823" height="579" fill="none" viewBox="0 0 823 579">
    <path fill="#010202" d="M133.312 3.358L109.537 83.95h-.352L83.941 3.358h-13.65L45.047 83.949h-.352L21.005 3.66l-.093-.302H0l34.21 110.184.092.294h18.855l23.288-73.372h.36l23.288 73.372h18.864L153.25 3.358h-19.938zM264.576 100.076c11.4-11.047 17.679-25.865 17.679-41.731 0-15.648-6.279-30.306-17.679-41.286C253.158 6.053 237.888 0 221.577 0c-16.287 0-31.473 6.061-42.756 17.058-11.241 10.948-17.428 25.614-17.428 41.287 0 33 26.436 58.849 60.192 58.849 16.328 0 31.599-6.078 42.991-17.118zM193.05 29.567c7.531-7.698 17.663-11.938 28.527-11.938 10.955 0 21.197 4.24 28.836 11.946 7.598 7.665 11.787 17.882 11.787 28.77 0 22.725-18.226 41.22-40.623 41.22-10.847 0-20.979-4.307-28.527-12.132-7.488-7.757-11.61-18.09-11.61-29.088 0-10.905 4.122-21.122 11.61-28.778zM402.446 37.358c0-8.32-3.047-16.228-8.58-22.28-7.144-7.884-17.31-11.72-31.095-11.72h-59.05v110.478h19.082V71.693h37.114l22.683 41.924.118.219h21.978l-25.521-44.863c14.582-5.767 23.271-17.554 23.271-31.615zm-79.643-16.37h39.968c5.524 0 11.325.444 16.303 5.742 2.804 3.064 4.29 6.732 4.29 10.628 0 9.058-7.933 16.706-17.335 16.706h-43.226V20.986zM500.381 3.358L445.436 57.01V3.358h-19.082v110.478h19.082V79.173l21.03-20.198 42.226 54.693.126.168h24.681l-53.232-68.041 43.964-42.437h-23.85zM250.15 225.592c12.903 0 22.641-3.392 29.777-10.368 6.38-6.397 9.898-14.909 9.898-23.967 0-8.295-2.964-15.993-8.58-22.272-7.22-8.001-17.1-11.728-31.095-11.728H191.1v110.478h19.082v-42.143h39.968zm-39.968-50.706h39.968c5.759 0 11.711.697 16.303 5.743 2.846 3.106 4.29 6.741 4.29 10.796 0 4.214-1.738 8.327-4.76 11.282-4.777 4.618-10.435 5.256-15.833 5.256h-39.968v-33.077zM308.361 157.257v110.478h84.386v-17.63h-65.304v-92.848h-19.082zM435.201 238.184h50.101l12.869 29.551h20.954l-49.732-110.478h-17.151l-49.723 110.478h19.98l12.702-29.551zm25.344-57.589l17.881 41.639h-36.342l18.041-41.639h.42zM549.17 267.735h19.082v-50.823l44.057-59.655H589.76l-30.239 42.008-30.112-41.832-.126-.176h-24.169l44.056 59.655v50.823zM483.016 345.156c0-8.32-3.047-16.228-8.58-22.28-7.144-7.892-17.31-11.72-31.094-11.72H384.3v110.478h19.082v-42.143h37.114l22.683 41.925.117.218h21.978l-25.52-44.863c14.582-5.767 23.262-17.554 23.262-31.615zm-79.634-16.37h39.968c5.515 0 11.325.445 16.303 5.742 2.804 3.064 4.29 6.741 4.29 10.628 0 9.058-7.933 16.706-17.336 16.706h-43.225v-33.076zM526.015 372.775h40.875v-17.629h-40.875v-26.36h68.075v-17.63h-87.156v110.478h91.068v-17.63h-71.987v-31.229zM665.489 424.992c30.079 0 47.322-13.558 47.322-37.19 0-30.851-29.626-32.942-49.228-34.318l-2.552-.185c-14.993-1.066-29.156-2.065-29.156-13.012 0-13.869 16.446-15.363 23.523-15.363 18.377 0 31.842 6.531 38.306 12.643l.319.302 11.636-13.759-.336-.269c-9.1-7.396-27.468-16.043-49.279-16.043-11.299 0-21.583 2.552-28.97 7.178-9.478 5.944-14.289 15.027-14.289 26.99 0 27.023 26.856 28.945 50.546 30.641 19.712 1.604 30.398 4.903 30.398 17.714 0 10.989-10.435 17.545-27.921 17.545-23.313 0-38.046-11.241-47.104-19.694l-.319-.303-11.619 13.734.294.277c16.689 15.548 35.804 23.112 58.429 23.112zM780.726 421.634v-92.848h41.689v-17.63H719.787v17.63h41.857v92.848h19.082zM59.05 465.055H0v110.478h19.082V533.39H59.05c12.903 0 22.641-3.391 29.777-10.368 6.38-6.396 9.898-14.909 9.898-23.967 0-8.294-2.964-15.992-8.58-22.272-7.22-8-17.1-11.728-31.095-11.728zm-39.968 17.63H59.05c5.76 0 11.711.697 16.303 5.742 2.846 3.106 4.29 6.741 4.29 10.796 0 4.214-1.738 8.328-4.76 11.283-4.777 4.617-10.435 5.255-15.833 5.255H19.082v-33.076zM136.342 526.674h40.876v-17.629h-40.876v-26.36h68.075v-17.63h-87.156v110.478h91.068v-17.63h-71.987v-31.229zM277.126 461.697c-16.286 0-31.473 6.053-42.756 17.059-11.241 10.947-17.428 25.613-17.428 41.286 0 33.001 26.436 58.849 60.192 58.849 16.337 0 31.616-6.078 42.999-17.117 11.4-11.048 17.68-25.865 17.68-41.732 0-15.648-6.28-30.306-17.68-41.286-11.425-10.998-26.696-17.059-43.007-17.059zm0 99.564c-10.846 0-20.979-4.306-28.526-12.13-7.489-7.757-11.61-18.091-11.61-29.089 0-10.905 4.121-21.121 11.61-28.778 7.53-7.698 17.663-11.937 28.526-11.937 10.955 0 21.197 4.239 28.836 11.946 7.598 7.664 11.787 17.881 11.787 28.769-.008 22.725-18.225 41.219-40.623 41.219zM414.963 465.055h-59.05v110.478h19.081V533.39h39.969c12.903 0 22.641-3.391 29.777-10.368 6.38-6.396 9.897-14.909 9.897-23.967 0-8.294-2.963-15.992-8.579-22.272-7.22-8-17.101-11.728-31.095-11.728zm-39.969 17.63h39.969c5.759 0 11.711.697 16.303 5.742 2.846 3.106 4.29 6.741 4.29 10.796 0 4.214-1.738 8.328-4.76 11.283-4.777 4.617-10.435 5.255-15.833 5.255h-39.969v-33.076zM492.255 465.055h-19.082v110.478h84.386v-17.629h-65.304v-92.849zM592.743 526.674h40.875v-17.629h-40.875v-26.36h68.075v-17.63h-87.157v110.478h91.06v-17.629h-71.978v-31.23z"/>
</svg>
