<svg width="655" height="337" viewBox="0 0 655 337" fill="none" xmlns="http://www.w3.org/2000/svg">
<path d="M22.73 0.920898H0V132.521H100.52V111.521H22.73V0.920898Z" fill="#010202"/>
<path d="M146.43 0.920898H123.7V132.521H146.43V0.920898Z" fill="#010202"/>
<path d="M202.18 74.3209H250.87V53.3209H202.18V21.9209H282.3V0.920898H179.45V132.521H202.18V74.3209Z" fill="#010202"/>
<path d="M410.34 111.521H324.59V74.3209H373.28V53.3209H324.59V21.9209H405.68V0.920898H301.86V132.521H410.34V111.521Z" fill="#010202"/>
<path d="M502.11 0.920898H479.38V132.521H502.11V0.920898Z" fill="#010202"/>
<path d="M631.67 0.920898V90.8409L559.23 1.1109L559.08 0.920898H539.13V132.521H561.86V42.5909L634.31 132.331L634.46 132.521H654.4V0.920898H631.67Z" fill="#010202"/>
<path d="M82.21 285.621C82.21 304.061 70.36 315.521 51.28 315.521C36.2 315.521 25.69 308.031 19.15 292.631L18.93 292.121L0 302.401L0.2 302.831C4.07 311.161 15.83 336.521 51.48 336.521C83.96 336.521 104.94 316.541 104.94 285.621V200.921H82.21V285.621Z" fill="#010202"/>
<path d="M158.17 274.321H206.86V253.321H158.17V221.921H239.26V200.921H135.44V332.521H243.92V311.521H158.17V274.321Z" fill="#010202"/>
<path d="M336.8 285.621C336.8 304.061 324.95 315.521 305.87 315.521C290.79 315.521 280.28 308.031 273.74 292.631L273.52 292.121L254.58 302.411L254.78 302.841C258.65 311.171 270.41 336.531 306.06 336.531C338.54 336.531 359.52 316.551 359.52 285.631V200.921H336.8V285.621Z" fill="#010202"/>
<path d="M478.1 285.621C478.1 303.781 464.74 315.521 444.07 315.521C423.51 315.521 410.23 303.781 410.23 285.621V200.921H387.5V285.621C387.5 316.541 409.7 336.521 444.07 336.521C478.55 336.521 500.83 316.541 500.83 285.621V200.921H478.1V285.621Z" fill="#010202"/>
</svg>
