<svg width="526" height="271" viewBox="0 0 526 271" fill="none" xmlns="http://www.w3.org/2000/svg">
<path d="M55.82 60.16C61.92 54.08 65.28 45.18 65.28 35.1C65.28 25.5 62.17 16.89 56.5 10.84C50.17 4.56 43.33 2 32.86 2H2V68.3H32.86C44.61 68.3 50.35 65.19 55.82 60.16ZM32.38 13C39.93 13 43.22 14.81 46.96 18.34C50.81 22.41 52.93 28.36 52.93 35.1C52.93 41.9 50.61 48.19 46.61 52.32C42.96 55.41 40.32 57.3 32.38 57.3H13.86V13H32.38Z" fill="white"/>
<path d="M89.9999 2H78.1399V68.3H89.9999V2Z" fill="white"/>
<path d="M136.55 59.6C122.75 59.6 114.03 52.94 108.66 47.93L108.28 47.57L101.04 56.14L101.39 56.46C111.38 65.77 122.82 70.29 136.36 70.29C154.43 70.29 164.8 62.12 164.8 47.89C164.8 29.28 146.3 27.98 135.25 27.2L133.73 27.09C124.92 26.47 116.6 25.87 116.6 19.59C116.6 11.56 126.22 10.69 130.36 10.69C141.23 10.69 149.19 14.55 153.01 18.15L153.39 18.51L160.66 9.92L160.26 9.6C154.79 5.18 143.79 0 130.73 0C123.95 0 117.78 1.53 113.34 4.31C107.62 7.9 104.72 13.38 104.72 20.6C104.72 36.93 121.54 38.13 135.05 39.1C146.64 40.04 152.92 41.96 152.92 49.4C152.93 55.79 146.81 59.6 136.55 59.6Z" fill="white"/>
<path d="M208 70.3C223.88 70.3 234.61 61.68 239.59 56.55L239.93 56.2L231.94 48.07L231.58 48.46C225.35 55.35 216.82 59.3 208.19 59.3C194.93 59.3 185.31 49.16 185.31 35.2C185.31 21.18 194.73 11 207.7 11C215.42 11 223.96 14.48 229.47 19.86L229.83 20.21L237.91 11.99L237.55 11.64C229.96 4.35 218.73 0 207.52 0C187.77 0 172.88 15.09 172.88 35.1C172.88 55.5 187.65 70.3 208 70.3Z" fill="white"/>
<path d="M280.17 70.3C300.58 70.3 316.56 54.79 316.56 35C316.56 15.7 300.24 0 280.17 0C259.93 0 244.07 15.38 244.07 35C244.07 54.8 259.93 70.3 280.17 70.3ZM280.17 11C293.37 11 304.11 21.77 304.11 35C304.11 48.4 293.37 59.3 280.17 59.3C267.13 59.3 256.52 48.4 256.52 35C256.52 21.54 266.91 11 280.17 11Z" fill="white"/>
<path d="M359.36 68.3L389.2 2H376.26L354.38 52.91L332.49 2H318.97L348.82 68.3H359.36Z" fill="white"/>
<path d="M409.97 39.2H434.32V28.2H409.97V13H450.52V2H398.11V68.3H452.85V57.3H409.97V39.2Z" fill="white"/>
<path d="M476.32 43.2H498.03L511.61 68.3H525.28L510 41.46C518.62 37.95 523.75 30.9 523.75 22.51C523.75 17.49 521.91 12.72 518.58 9.07C514.28 4.31 508.16 2 499.88 2H464.46V68.3H476.32V43.2ZM476.32 13H499.88C503.11 13 506.51 13.26 509.4 16.34C511.05 18.14 511.89 20.22 511.89 22.5C511.89 27.76 507.28 32.2 501.82 32.2H476.32V13Z" fill="white"/>
<path d="M26.49 168.3H38.35V137.87L64.84 102H50.79L32.9 126.85L15.17 102.21L15.02 102H0L26.49 137.87V168.3Z" fill="white"/>
<path d="M138.07 135C138.07 115.7 121.74 100 101.68 100C81.4401 100 65.5801 115.38 65.5801 135C65.5801 154.8 81.4401 170.3 101.68 170.3C122.08 170.3 138.07 154.8 138.07 135ZM101.68 111C114.88 111 125.62 121.77 125.62 135C125.62 148.4 114.88 159.3 101.68 159.3C88.6401 159.3 78.0301 148.4 78.0301 135C78.0301 121.54 88.4201 111 101.68 111Z" fill="white"/>
<path d="M177.63 170.3C195.02 170.3 206.26 160.21 206.26 144.6V102H194.4V144.6C194.4 153.53 187.82 159.3 177.63 159.3C167.5 159.3 160.96 153.53 160.96 144.6V102H149.1V144.6C149.1 160.22 160.29 170.3 177.63 170.3Z" fill="white"/>
<path d="M233.87 143.2H255.58L269.16 168.3H282.83L267.56 141.45C276.18 137.94 281.31 130.89 281.31 122.5C281.31 117.48 279.47 112.71 276.14 109.06C271.84 104.31 265.72 101.99 257.43 101.99H222.01V168.29H233.88V143.2H233.87ZM233.87 113H257.42C260.65 113 264.05 113.26 266.95 116.34C268.6 118.14 269.44 120.22 269.44 122.5C269.44 127.76 264.83 132.2 259.37 132.2H233.87V113Z" fill="white"/>
<path d="M49.3 226.7H15.86V202H4V268.3H15.86V237.7H49.3V268.3H61.16V202H49.3V226.7Z" fill="white"/>
<path d="M100.11 202L70.27 268.3H82.72L90.29 250.7H119.8L127.46 268.3H140.49L110.65 202H100.11ZM115.49 240.7H94.6L105.09 216.49L115.49 240.7Z" fill="white"/>
<path d="M208.89 222.5C208.89 217.48 207.05 212.71 203.72 209.06C199.42 204.31 193.3 201.99 185.01 201.99H149.6V268.29H161.47V243.19H183.18L196.76 268.29H210.43L195.16 241.44C203.77 237.95 208.89 230.9 208.89 222.5ZM161.46 213H185.01C188.24 213 191.64 213.26 194.54 216.34C196.19 218.14 197.03 220.22 197.03 222.5C197.03 227.76 192.42 232.2 186.96 232.2H161.46V213Z" fill="white"/>
<path d="M256.41 240.16L234.72 202.25L234.58 202H222.64V268.3H234.01V224.43L254.76 260.5H257.08L277.83 224.43V268.3H289.69V202H278.23L256.41 240.16Z" fill="white"/>
<path d="M337.18 200C316.94 200 301.08 215.38 301.08 235C301.08 254.8 316.94 270.3 337.18 270.3C357.59 270.3 373.57 254.79 373.57 235C373.57 215.7 357.24 200 337.18 200ZM337.18 211C350.38 211 361.12 221.77 361.12 235C361.12 248.4 350.38 259.3 337.18 259.3C324.14 259.3 313.53 248.4 313.53 235C313.53 221.54 323.92 211 337.18 211Z" fill="white"/>
<path d="M431.12 246.51L395.35 202.19L395.2 202H384.86V268.3H396.72V223.8L432.5 268.12L432.65 268.3H442.99V202H431.12V246.51Z" fill="white"/>
<path d="M484 226.85L466.27 202.21L466.12 202H451.1L477.59 237.87V268.3H489.45V237.87L515.94 202H501.89L484 226.85Z" fill="white"/>
</svg>
