<svg width="100" height="100" viewBox="0 0 100 100" fill="none" xmlns="http://www.w3.org/2000/svg">
<circle cx="50" cy="50" r="49.4" fill="#F5F5F5" stroke="#505050" stroke-width="1.2"/>
<path d="M28.9237 56.168C30.9757 56.168 32.1877 54.932 32.1877 53.48C32.1877 52.196 31.4797 51.512 30.3997 51.068L29.2357 50.576C28.4797 50.276 27.8437 50.048 27.8437 49.412C27.8437 48.824 28.3477 48.476 29.1277 48.476C29.8597 48.476 30.4477 48.74 31.0117 49.208L31.9117 48.092C31.1917 47.36 30.1597 46.952 29.1277 46.952C27.3277 46.952 26.0557 48.068 26.0557 49.52C26.0557 50.816 26.9557 51.536 27.8557 51.908L29.0437 52.412C29.8357 52.748 30.3757 52.952 30.3757 53.612C30.3757 54.236 29.8837 54.632 28.9597 54.632C28.1797 54.632 27.3397 54.236 26.7037 53.648L25.6837 54.872C26.5477 55.7 27.7357 56.168 28.9237 56.168ZM37.984 56.168C39.136 56.168 40.084 55.712 40.816 54.86L39.88 53.756C39.4 54.272 38.8 54.632 38.044 54.632C36.64 54.632 35.728 53.468 35.728 51.536C35.728 49.628 36.736 48.476 38.08 48.476C38.752 48.476 39.268 48.788 39.712 49.22L40.648 48.092C40.072 47.492 39.172 46.952 38.044 46.952C35.8 46.952 33.916 48.668 33.916 51.596C33.916 54.56 35.74 56.168 37.984 56.168ZM44.6227 48.524H45.7747C46.9147 48.524 47.5387 48.848 47.5387 49.808C47.5387 50.756 46.9147 51.236 45.7747 51.236H44.6227V48.524ZM49.6627 56L47.5867 52.364C48.6067 51.968 49.2787 51.14 49.2787 49.808C49.2787 47.768 47.8027 47.12 45.9427 47.12H42.8467V56H44.6227V52.64H45.8587L47.6827 56H49.6627ZM55.1544 56.168C57.5064 56.168 59.1264 54.404 59.1264 51.524C59.1264 48.644 57.5064 46.952 55.1544 46.952C52.8024 46.952 51.1824 48.632 51.1824 51.524C51.1824 54.404 52.8024 56.168 55.1544 56.168ZM55.1544 54.632C53.8344 54.632 52.9944 53.42 52.9944 51.524C52.9944 49.616 53.8344 48.476 55.1544 48.476C56.4744 48.476 57.3144 49.616 57.3144 51.524C57.3144 53.42 56.4744 54.632 55.1544 54.632ZM61.4608 56H66.8368V54.512H63.2368V47.12H61.4608V56ZM68.9865 56H74.3625V54.512H70.7625V47.12H68.9865V56Z" fill="black"/>
</svg>
