<svg width="24" height="19" viewBox="0 0 24 19" fill="none" xmlns="http://www.w3.org/2000/svg">
<path d="M10.3566 1.77961C8.23566 2.91826 6.62326 4.06842 5.38295 5.49462C4.15504 6.92082 4.51473 9.03711 6.11473 10.1068L6.53643 10.3943C8.55814 11.832 9.09147 13.0972 9.09147 14.5924C9.09147 16.8582 7.13178 18.3994 4.98605 18.3994H4.93643C3.01395 18.3879 1.24031 17.3068 0.595349 15.6275C0.210853 14.5809 0 13.4767 0 12.3841C0 7.24286 3.9938 2.66523 9.5876 0.399414L10.3566 1.77961ZM24 1.77961C21.8667 2.91826 20.2543 4.06842 19.0264 5.49462C17.7985 6.92082 18.1581 9.03711 19.7581 10.1068L20.1798 10.3943C22.2016 11.832 22.7349 13.0972 22.7349 14.5924C22.7349 16.8582 20.7752 18.3994 18.6295 18.3994H18.5798C16.6574 18.3879 14.8837 17.3068 14.2388 15.6275C13.8543 14.5809 13.6434 13.4767 13.6434 12.3841C13.6434 7.24286 17.6372 2.66523 23.231 0.399414L24 1.77961Z" fill="#F5F5F5"/>
</svg>
