<svg width="24" height="18" viewBox="0 0 24 18" fill="none" xmlns="http://www.w3.org/2000/svg">
<path d="M10.3566 1.38019C8.23566 2.51885 6.62326 3.66901 5.38295 5.09521C4.15504 6.52141 4.51473 8.6377 6.11473 9.70735L6.53643 9.99489C8.55814 11.4326 9.09147 12.6978 9.09147 14.193C9.09147 16.4588 7.13178 18 4.98605 18H4.93643C3.01395 17.9885 1.24031 16.9073 0.595349 15.2281C0.210853 14.1815 0 13.0773 0 11.9847C0 6.84345 3.9938 2.26581 9.5876 0L10.3566 1.38019ZM24 1.38019C21.8667 2.51885 20.2543 3.66901 19.0264 5.09521C17.7985 6.52141 18.1581 8.6377 19.7581 9.70735L20.1798 9.99489C22.2016 11.4326 22.7349 12.6978 22.7349 14.193C22.7349 16.4588 20.7752 18 18.6295 18H18.5798C16.6574 17.9885 14.8837 16.9073 14.2388 15.2281C13.8543 14.1815 13.6434 13.0773 13.6434 11.9847C13.6434 6.84345 17.6372 2.26581 23.231 0L24 1.38019Z" fill="black"/>
</svg>
