<svg width="100" height="101" viewBox="0 0 100 101" fill="none" xmlns="http://www.w3.org/2000/svg">
<circle opacity="0.3" cx="50" cy="50.0796" r="49.4" stroke="black" stroke-width="1.2"/>
<path d="M34.2377 55.0796H36.0137V51.9236H37.2017C39.1097 51.9236 40.6337 51.0116 40.6337 48.9836C40.6337 46.8836 39.1217 46.1996 37.1537 46.1996H34.2377V55.0796ZM36.0137 50.5196V47.6036H37.0217C38.2457 47.6036 38.8937 47.9516 38.8937 48.9836C38.8937 50.0036 38.3057 50.5196 37.0817 50.5196H36.0137ZM44.0416 55.0796H49.4176V53.5916H45.8176V46.1996H44.0416V55.0796ZM54.3768 51.4196L54.6408 50.4476C54.9048 49.5236 55.1688 48.5156 55.3968 47.5436H55.4448C55.7088 48.5036 55.9488 49.5236 56.2248 50.4476L56.4888 51.4196H54.3768ZM57.4968 55.0796H59.3568L56.5008 46.1996H54.4128L51.5688 55.0796H53.3688L53.9928 52.7996H56.8728L57.4968 55.0796ZM63.4736 55.0796H65.2496V51.8276L67.9256 46.1996H66.0776L65.1896 48.3596C64.9376 49.0196 64.6736 49.6436 64.3976 50.3276H64.3496C64.0736 49.6436 63.8336 49.0196 63.5816 48.3596L62.6936 46.1996H60.8096L63.4736 51.8276V55.0796Z" fill="black"/>
</svg>
